<mxfile host="app.diagrams.net" modified="2023-10-04T17:37:17.233Z" agent="Mozilla/5.0 (Windows NT 10.0; Win64; x64) AppleWebKit/537.36 (KHTML, like Gecko) Chrome/117.0.0.0 Safari/537.36 Edg/117.0.2045.47" etag="BbWVJ-H0eLCMEHD3wBep" version="22.0.2" type="github">
  <diagram id="R2lEEEUBdFMjLlhIrx00" name="Page-1">
    <mxGraphModel dx="986" dy="433" grid="1" gridSize="10" guides="1" tooltips="1" connect="1" arrows="1" fold="1" page="1" pageScale="1" pageWidth="850" pageHeight="1100" math="0" shadow="0" extFonts="Permanent Marker^https://fonts.googleapis.com/css?family=Permanent+Marker">
      <root>
        <mxCell id="0" />
        <mxCell id="1" parent="0" />
        <mxCell id="aHJGqN-GS59mJnBzp212-1" value="Sucursal" style="rounded=0;whiteSpace=wrap;html=1;" vertex="1" parent="1">
          <mxGeometry x="120" y="105" width="120" height="60" as="geometry" />
        </mxCell>
        <mxCell id="aHJGqN-GS59mJnBzp212-2" value="Empleado" style="rounded=0;whiteSpace=wrap;html=1;" vertex="1" parent="1">
          <mxGeometry x="630" y="120" width="120" height="60" as="geometry" />
        </mxCell>
        <mxCell id="aHJGqN-GS59mJnBzp212-3" value="Revista" style="rounded=0;whiteSpace=wrap;html=1;" vertex="1" parent="1">
          <mxGeometry x="120" y="440" width="120" height="60" as="geometry" />
        </mxCell>
        <mxCell id="aHJGqN-GS59mJnBzp212-4" value="Periodista" style="rounded=0;whiteSpace=wrap;html=1;" vertex="1" parent="1">
          <mxGeometry x="710" y="380" width="120" height="60" as="geometry" />
        </mxCell>
        <mxCell id="aHJGqN-GS59mJnBzp212-5" value="Tiene" style="rhombus;whiteSpace=wrap;html=1;" vertex="1" parent="1">
          <mxGeometry x="150" y="280" width="60" height="50" as="geometry" />
        </mxCell>
        <mxCell id="aHJGqN-GS59mJnBzp212-6" value="Tiene" style="rhombus;whiteSpace=wrap;html=1;" vertex="1" parent="1">
          <mxGeometry x="730" y="270" width="60" height="50" as="geometry" />
        </mxCell>
        <mxCell id="aHJGqN-GS59mJnBzp212-7" value="Tiene" style="rhombus;whiteSpace=wrap;html=1;" vertex="1" parent="1">
          <mxGeometry x="390" y="125" width="50" height="50" as="geometry" />
        </mxCell>
        <mxCell id="aHJGqN-GS59mJnBzp212-10" value="" style="endArrow=none;html=1;rounded=0;entryX=0;entryY=0.5;entryDx=0;entryDy=0;" edge="1" parent="1" target="aHJGqN-GS59mJnBzp212-7">
          <mxGeometry width="50" height="50" relative="1" as="geometry">
            <mxPoint x="240" y="150" as="sourcePoint" />
            <mxPoint x="200" y="110" as="targetPoint" />
          </mxGeometry>
        </mxCell>
        <mxCell id="aHJGqN-GS59mJnBzp212-12" value="" style="endArrow=classic;html=1;rounded=0;entryX=0.625;entryY=0.856;entryDx=0;entryDy=0;entryPerimeter=0;" edge="1" parent="1" target="aHJGqN-GS59mJnBzp212-25">
          <mxGeometry width="50" height="50" relative="1" as="geometry">
            <mxPoint x="440" y="150" as="sourcePoint" />
            <mxPoint x="490" y="100" as="targetPoint" />
          </mxGeometry>
        </mxCell>
        <mxCell id="aHJGqN-GS59mJnBzp212-17" value="Codigo de sucursal" style="ellipse;whiteSpace=wrap;html=1;fillColor=#15EAE3;" vertex="1" parent="1">
          <mxGeometry x="65" y="47" width="80" height="30" as="geometry" />
        </mxCell>
        <mxCell id="aHJGqN-GS59mJnBzp212-20" value="" style="endArrow=none;html=1;rounded=0;exitX=0.5;exitY=0;exitDx=0;exitDy=0;" edge="1" parent="1" source="aHJGqN-GS59mJnBzp212-1">
          <mxGeometry width="50" height="50" relative="1" as="geometry">
            <mxPoint x="130" y="100" as="sourcePoint" />
            <mxPoint x="180" y="50" as="targetPoint" />
          </mxGeometry>
        </mxCell>
        <mxCell id="aHJGqN-GS59mJnBzp212-21" value="Dirección" style="ellipse;whiteSpace=wrap;html=1;fillColor=#FFFFCC;" vertex="1" parent="1">
          <mxGeometry x="145" y="10" width="70" height="40" as="geometry" />
        </mxCell>
        <mxCell id="aHJGqN-GS59mJnBzp212-22" value="" style="endArrow=none;html=1;rounded=0;exitX=0.75;exitY=0;exitDx=0;exitDy=0;" edge="1" parent="1" source="aHJGqN-GS59mJnBzp212-1">
          <mxGeometry width="50" height="50" relative="1" as="geometry">
            <mxPoint x="190" y="118.5" as="sourcePoint" />
            <mxPoint x="240" y="68.5" as="targetPoint" />
          </mxGeometry>
        </mxCell>
        <mxCell id="aHJGqN-GS59mJnBzp212-23" value="Teléfono" style="ellipse;whiteSpace=wrap;html=1;fillColor=#FFFFCC;" vertex="1" parent="1">
          <mxGeometry x="210" y="30" width="70" height="39" as="geometry" />
        </mxCell>
        <mxCell id="aHJGqN-GS59mJnBzp212-24" value="1" style="text;strokeColor=none;fillColor=none;align=left;verticalAlign=middle;spacingLeft=4;spacingRight=4;overflow=hidden;points=[[0,0.5],[1,0.5]];portConstraint=eastwest;rotatable=0;whiteSpace=wrap;html=1;" vertex="1" parent="1">
          <mxGeometry x="250" y="120" width="20" height="30" as="geometry" />
        </mxCell>
        <mxCell id="aHJGqN-GS59mJnBzp212-25" value="N" style="text;strokeColor=none;fillColor=none;align=left;verticalAlign=middle;spacingLeft=4;spacingRight=4;overflow=hidden;points=[[0,0.5],[1,0.5]];portConstraint=eastwest;rotatable=0;whiteSpace=wrap;html=1;" vertex="1" parent="1">
          <mxGeometry x="580" y="125" width="80" height="30" as="geometry" />
        </mxCell>
        <mxCell id="aHJGqN-GS59mJnBzp212-26" value="" style="endArrow=none;html=1;rounded=0;entryX=1;entryY=1;entryDx=0;entryDy=0;exitX=0.25;exitY=0;exitDx=0;exitDy=0;" edge="1" parent="1" source="aHJGqN-GS59mJnBzp212-2" target="aHJGqN-GS59mJnBzp212-27">
          <mxGeometry width="50" height="50" relative="1" as="geometry">
            <mxPoint x="710" y="120" as="sourcePoint" />
            <mxPoint x="680" y="90" as="targetPoint" />
          </mxGeometry>
        </mxCell>
        <mxCell id="aHJGqN-GS59mJnBzp212-27" value="RFC" style="ellipse;whiteSpace=wrap;html=1;fillColor=#15EAE3;" vertex="1" parent="1">
          <mxGeometry x="520" y="40.5" width="80" height="49" as="geometry" />
        </mxCell>
        <mxCell id="aHJGqN-GS59mJnBzp212-28" value="" style="endArrow=none;html=1;rounded=0;entryX=0.5;entryY=1;entryDx=0;entryDy=0;" edge="1" parent="1" target="aHJGqN-GS59mJnBzp212-29">
          <mxGeometry width="50" height="50" relative="1" as="geometry">
            <mxPoint x="704.5" y="120" as="sourcePoint" />
            <mxPoint x="704.5" y="60" as="targetPoint" />
          </mxGeometry>
        </mxCell>
        <mxCell id="aHJGqN-GS59mJnBzp212-29" value="Nombre" style="ellipse;whiteSpace=wrap;html=1;" vertex="1" parent="1">
          <mxGeometry x="600" y="28.5" width="90" height="40" as="geometry" />
        </mxCell>
        <mxCell id="aHJGqN-GS59mJnBzp212-30" value="" style="endArrow=none;html=1;rounded=0;entryX=0.5;entryY=1;entryDx=0;entryDy=0;" edge="1" parent="1" target="aHJGqN-GS59mJnBzp212-31">
          <mxGeometry width="50" height="50" relative="1" as="geometry">
            <mxPoint x="720" y="120" as="sourcePoint" />
            <mxPoint x="770" y="70" as="targetPoint" />
          </mxGeometry>
        </mxCell>
        <mxCell id="aHJGqN-GS59mJnBzp212-31" value="Dirección" style="ellipse;whiteSpace=wrap;html=1;" vertex="1" parent="1">
          <mxGeometry x="690" y="23.5" width="80" height="45" as="geometry" />
        </mxCell>
        <mxCell id="aHJGqN-GS59mJnBzp212-32" value="" style="endArrow=none;html=1;rounded=0;" edge="1" parent="1" source="aHJGqN-GS59mJnBzp212-33">
          <mxGeometry width="50" height="50" relative="1" as="geometry">
            <mxPoint x="750" y="120" as="sourcePoint" />
            <mxPoint x="800" y="70" as="targetPoint" />
          </mxGeometry>
        </mxCell>
        <mxCell id="aHJGqN-GS59mJnBzp212-34" value="" style="endArrow=none;html=1;rounded=0;" edge="1" parent="1" target="aHJGqN-GS59mJnBzp212-33">
          <mxGeometry width="50" height="50" relative="1" as="geometry">
            <mxPoint x="750" y="120" as="sourcePoint" />
            <mxPoint x="800" y="70" as="targetPoint" />
          </mxGeometry>
        </mxCell>
        <mxCell id="aHJGqN-GS59mJnBzp212-33" value="Teléfono" style="ellipse;whiteSpace=wrap;html=1;" vertex="1" parent="1">
          <mxGeometry x="770" y="31" width="70" height="46" as="geometry" />
        </mxCell>
        <mxCell id="aHJGqN-GS59mJnBzp212-35" value="1 sucursal de la editorial tiene muchos empleados, pero 1 empleado solo puede trabajar en 1 sucursal" style="text;html=1;strokeColor=none;fillColor=none;align=center;verticalAlign=middle;whiteSpace=wrap;rounded=0;" vertex="1" parent="1">
          <mxGeometry x="260" y="30" width="250" height="70" as="geometry" />
        </mxCell>
        <mxCell id="aHJGqN-GS59mJnBzp212-36" value="" style="endArrow=none;html=1;rounded=0;exitX=0.5;exitY=0;exitDx=0;exitDy=0;entryX=0.5;entryY=1;entryDx=0;entryDy=0;" edge="1" parent="1" source="aHJGqN-GS59mJnBzp212-5" target="aHJGqN-GS59mJnBzp212-1">
          <mxGeometry width="50" height="50" relative="1" as="geometry">
            <mxPoint x="50" y="230" as="sourcePoint" />
            <mxPoint x="100" y="180" as="targetPoint" />
          </mxGeometry>
        </mxCell>
        <mxCell id="aHJGqN-GS59mJnBzp212-37" value="" style="endArrow=classic;html=1;rounded=0;entryX=0.5;entryY=0;entryDx=0;entryDy=0;exitX=0.5;exitY=1;exitDx=0;exitDy=0;" edge="1" parent="1" source="aHJGqN-GS59mJnBzp212-5" target="aHJGqN-GS59mJnBzp212-3">
          <mxGeometry width="50" height="50" relative="1" as="geometry">
            <mxPoint x="90" y="320" as="sourcePoint" />
            <mxPoint x="140" y="270" as="targetPoint" />
          </mxGeometry>
        </mxCell>
        <mxCell id="aHJGqN-GS59mJnBzp212-38" value="La sucursal publica 1 revista y la revista es publicada por 1 sucursal&amp;nbsp;" style="text;html=1;strokeColor=none;fillColor=none;align=center;verticalAlign=middle;whiteSpace=wrap;rounded=0;" vertex="1" parent="1">
          <mxGeometry x="250" y="300" width="230" height="30" as="geometry" />
        </mxCell>
        <mxCell id="aHJGqN-GS59mJnBzp212-41" value="1" style="text;strokeColor=none;fillColor=none;align=left;verticalAlign=middle;spacingLeft=4;spacingRight=4;overflow=hidden;points=[[0,0.5],[1,0.5]];portConstraint=eastwest;rotatable=0;whiteSpace=wrap;html=1;" vertex="1" parent="1">
          <mxGeometry x="185" y="175" width="30" height="30" as="geometry" />
        </mxCell>
        <mxCell id="aHJGqN-GS59mJnBzp212-42" value="M" style="text;strokeColor=none;fillColor=none;align=left;verticalAlign=middle;spacingLeft=4;spacingRight=4;overflow=hidden;points=[[0,0.5],[1,0.5]];portConstraint=eastwest;rotatable=0;whiteSpace=wrap;html=1;" vertex="1" parent="1">
          <mxGeometry x="180" y="395" width="40" height="30" as="geometry" />
        </mxCell>
        <mxCell id="aHJGqN-GS59mJnBzp212-44" value="" style="endArrow=none;html=1;rounded=0;" edge="1" parent="1" source="aHJGqN-GS59mJnBzp212-1">
          <mxGeometry width="50" height="50" relative="1" as="geometry">
            <mxPoint x="90" y="120" as="sourcePoint" />
            <mxPoint x="140" y="70" as="targetPoint" />
          </mxGeometry>
        </mxCell>
      </root>
    </mxGraphModel>
  </diagram>
</mxfile>
